<svg xmlns="http://www.w3.org/2000/svg" xmlns:xlink="http://www.w3.org/1999/xlink" width="100" zoomAndPan="magnify" viewBox="0 0 75 74.999997" height="100" preserveAspectRatio="xMidYMid meet" version="1.0"><defs><clipPath id="f28edcd2bb"><path d="M 10.339844 8.570312 L 67.339844 8.570312 L 67.339844 67.820312 L 10.339844 67.820312 Z M 10.339844 8.570312 " clip-rule="nonzero"/></clipPath></defs><rect x="-7.5" width="90" fill="#ffffff" y="-7.5" height="89.999996" fill-opacity="1"/><rect x="-7.5" width="90" fill="#ffffff" y="-7.5" height="89.999996" fill-opacity="1"/><rect x="-7.5" width="90" fill="#000000" y="-7.5" height="89.999996" fill-opacity="1"/><g clip-path="url(#f28edcd2bb)"><path fill="#00feca" d="M 66.640625 32 L 14.8125 32 L 22.585938 29.742188 L 24.082031 29.308594 L 28.703125 27.96875 L 32.121094 26.96875 L 51.25 21.425781 L 51.695312 21.296875 L 56.410156 19.929688 L 61.019531 18.59375 L 64.558594 17.566406 C 64.722656 17.519531 64.84375 17.417969 64.929688 17.269531 C 65.015625 17.117188 65.03125 16.960938 64.980469 16.792969 L 62.78125 9.078125 C 62.734375 8.914062 62.636719 8.789062 62.484375 8.707031 C 62.335938 8.625 62.179688 8.605469 62.015625 8.652344 L 61.460938 8.8125 L 56.847656 10.152344 L 48.148438 12.671875 L 47.523438 12.855469 L 40.882812 14.777344 L 38.433594 15.492188 L 33.757812 16.847656 L 30.1875 17.882812 L 24.109375 19.65625 L 19.914062 20.871094 L 15.148438 22.238281 L 10.902344 23.472656 C 10.738281 23.519531 10.613281 23.621094 10.53125 23.773438 C 10.449219 23.921875 10.429688 24.082031 10.476562 24.246094 L 12.675781 31.960938 C 12.6875 32 12.703125 32.035156 12.722656 32.070312 C 12.71875 32.078125 12.71875 32.089844 12.722656 32.097656 L 12.765625 32.167969 L 12.792969 32.195312 C 12.808594 32.21875 12.824219 32.234375 12.84375 32.253906 L 12.875 32.277344 L 12.910156 32.304688 C 12.851562 32.402344 12.820312 32.507812 12.820312 32.621094 L 12.820312 67.164062 C 12.820312 67.339844 12.882812 67.488281 13.007812 67.613281 C 13.132812 67.734375 13.28125 67.792969 13.457031 67.789062 L 66.640625 67.789062 C 66.8125 67.789062 66.957031 67.730469 67.078125 67.605469 C 67.199219 67.484375 67.261719 67.335938 67.261719 67.164062 L 67.261719 32.621094 C 67.261719 32.449219 67.199219 32.300781 67.078125 32.179688 C 66.957031 32.058594 66.808594 32 66.640625 32 Z M 62.089844 11.195312 L 63.613281 16.542969 L 61.5625 17.132812 Z M 52.882812 12.605469 L 56.316406 11.609375 L 55.65625 18.847656 L 52.222656 19.84375 Z M 43.789062 15.238281 L 46.984375 14.3125 L 46.324219 21.554688 L 43.136719 22.480469 Z M 34.511719 17.933594 L 37.90625 16.949219 L 37.242188 24.1875 L 33.84375 25.175781 Z M 25.273438 20.609375 L 28.613281 19.640625 L 27.949219 26.882812 L 24.613281 27.855469 Z M 15.886719 23.332031 L 19.382812 22.316406 L 18.722656 29.558594 L 15.222656 30.574219 Z M 56.785156 33.246094 L 60.355469 33.246094 L 57.734375 40.023438 L 54.167969 40.023438 Z M 47.324219 33.246094 L 50.648438 33.246094 L 48.027344 40.023438 L 44.707031 40.023438 Z M 37.660156 33.246094 L 41.179688 33.246094 L 38.558594 40.023438 L 35.039062 40.023438 Z M 28.054688 33.246094 L 31.527344 33.246094 L 28.90625 40.023438 L 25.4375 40.023438 Z M 18.285156 33.246094 L 21.921875 33.246094 L 19.300781 40.023438 L 15.664062 40.023438 Z M 66.019531 66.539062 L 14.089844 66.539062 L 14.089844 41.273438 L 66.019531 41.273438 Z M 66.019531 40.023438 L 63.867188 40.023438 L 66.019531 34.460938 Z M 66.019531 40.023438 " fill-opacity="1" fill-rule="nonzero"/></g><path fill="#00feca" d="M 47.558594 52.921875 L 34.894531 44.160156 C 34.5625 43.910156 34.210938 43.882812 33.839844 44.070312 C 33.472656 44.257812 33.289062 44.5625 33.289062 44.976562 L 33.289062 62.585938 C 33.289062 62.601562 33.289062 62.617188 33.289062 62.632812 C 33.289062 62.769531 33.3125 62.898438 33.363281 63.023438 C 33.417969 63.148438 33.488281 63.257812 33.582031 63.351562 C 33.679688 63.449219 33.789062 63.519531 33.910156 63.570312 C 34.035156 63.625 34.164062 63.648438 34.296875 63.648438 C 34.523438 63.648438 34.726562 63.578125 34.902344 63.4375 L 47.582031 54.675781 C 47.914062 54.480469 48.082031 54.183594 48.074219 53.792969 C 48.070312 53.402344 47.898438 53.109375 47.558594 52.921875 Z M 47.558594 52.921875 " fill-opacity="1" fill-rule="nonzero"/></svg>