<svg xmlns="http://www.w3.org/2000/svg" xmlns:xlink="http://www.w3.org/1999/xlink" width="500" zoomAndPan="magnify" viewBox="0 0 375 74.999997" height="100" preserveAspectRatio="xMidYMid meet" version="1.0"><defs><g/></defs><rect x="-37.5" width="450" fill="#ffffff" y="-7.5" height="89.999996" fill-opacity="1"/><rect x="-37.5" width="450" fill="#ffffff" y="-7.5" height="89.999996" fill-opacity="1"/><rect x="-37.5" width="450" fill="#000000" y="-7.5" height="89.999996" fill-opacity="1"/><g fill="#d485f8" fill-opacity="1"><g transform="translate(6.404944, 68.598411)"><g><path d="M 7.84375 -5.59375 C 8.46875 -5.414062 8.953125 -5.097656 9.296875 -4.640625 C 9.640625 -4.179688 9.8125 -3.617188 9.8125 -2.953125 C 9.8125 -2.023438 9.476562 -1.300781 8.8125 -0.78125 C 8.15625 -0.257812 7.25 0 6.09375 0 L 2.125 0 C 1.820312 0 1.585938 -0.078125 1.421875 -0.234375 C 1.253906 -0.398438 1.171875 -0.632812 1.171875 -0.9375 L 1.171875 -9.90625 C 1.171875 -10.195312 1.253906 -10.425781 1.421875 -10.59375 C 1.585938 -10.757812 1.820312 -10.84375 2.125 -10.84375 L 5.9375 -10.84375 C 7.0625 -10.84375 7.941406 -10.59375 8.578125 -10.09375 C 9.222656 -9.59375 9.546875 -8.898438 9.546875 -8.015625 C 9.546875 -7.441406 9.394531 -6.941406 9.09375 -6.515625 C 8.789062 -6.097656 8.375 -5.789062 7.84375 -5.59375 Z M 3.109375 -6.265625 L 5.609375 -6.265625 C 6.972656 -6.265625 7.65625 -6.773438 7.65625 -7.796875 C 7.65625 -8.304688 7.484375 -8.679688 7.140625 -8.921875 C 6.804688 -9.171875 6.296875 -9.296875 5.609375 -9.296875 L 3.109375 -9.296875 Z M 5.875 -1.53125 C 6.59375 -1.53125 7.113281 -1.660156 7.4375 -1.921875 C 7.769531 -2.179688 7.9375 -2.582031 7.9375 -3.125 C 7.9375 -3.664062 7.769531 -4.066406 7.4375 -4.328125 C 7.101562 -4.597656 6.582031 -4.734375 5.875 -4.734375 L 3.109375 -4.734375 L 3.109375 -1.53125 Z M 5.875 -1.53125 "/></g></g></g><g fill="#d485f8" fill-opacity="1"><g transform="translate(20.356411, 68.598411)"><g><path d="M 9.84375 -1.25 C 9.96875 -1.0625 10.03125 -0.878906 10.03125 -0.703125 C 10.03125 -0.472656 9.929688 -0.28125 9.734375 -0.125 C 9.546875 0.03125 9.328125 0.109375 9.078125 0.109375 C 8.910156 0.109375 8.75 0.0703125 8.59375 0 C 8.445312 -0.0820312 8.320312 -0.203125 8.21875 -0.359375 L 6.1875 -3.453125 C 5.976562 -3.785156 5.757812 -4.015625 5.53125 -4.140625 C 5.300781 -4.273438 5 -4.34375 4.625 -4.34375 L 3.125 -4.34375 L 3.125 -0.90625 C 3.125 -0.601562 3.035156 -0.359375 2.859375 -0.171875 C 2.679688 0.00390625 2.445312 0.09375 2.15625 0.09375 C 1.851562 0.09375 1.613281 0.00390625 1.4375 -0.171875 C 1.257812 -0.359375 1.171875 -0.601562 1.171875 -0.90625 L 1.171875 -9.90625 C 1.171875 -10.195312 1.253906 -10.425781 1.421875 -10.59375 C 1.585938 -10.757812 1.820312 -10.84375 2.125 -10.84375 L 5.96875 -10.84375 C 7.195312 -10.84375 8.128906 -10.566406 8.765625 -10.015625 C 9.410156 -9.460938 9.734375 -8.671875 9.734375 -7.640625 C 9.734375 -6.796875 9.492188 -6.101562 9.015625 -5.5625 C 8.535156 -5.03125 7.863281 -4.6875 7 -4.53125 C 7.289062 -4.457031 7.550781 -4.328125 7.78125 -4.140625 C 8.007812 -3.960938 8.226562 -3.707031 8.4375 -3.375 Z M 5.6875 -5.875 C 6.4375 -5.875 6.984375 -6.015625 7.328125 -6.296875 C 7.679688 -6.578125 7.859375 -7.007812 7.859375 -7.59375 C 7.859375 -8.1875 7.679688 -8.617188 7.328125 -8.890625 C 6.984375 -9.160156 6.4375 -9.296875 5.6875 -9.296875 L 3.109375 -9.296875 L 3.109375 -5.875 Z M 5.6875 -5.875 "/></g></g></g><g fill="#d485f8" fill-opacity="1"><g transform="translate(34.492242, 68.598411)"><g><path d="M 2.15625 0.09375 C 1.851562 0.09375 1.613281 0 1.4375 -0.1875 C 1.257812 -0.375 1.171875 -0.613281 1.171875 -0.90625 L 1.171875 -9.9375 C 1.171875 -10.226562 1.257812 -10.460938 1.4375 -10.640625 C 1.613281 -10.828125 1.851562 -10.921875 2.15625 -10.921875 C 2.457031 -10.921875 2.695312 -10.828125 2.875 -10.640625 C 3.0625 -10.460938 3.15625 -10.226562 3.15625 -9.9375 L 3.15625 -0.90625 C 3.15625 -0.613281 3.0625 -0.375 2.875 -0.1875 C 2.695312 0 2.457031 0.09375 2.15625 0.09375 Z M 2.15625 0.09375 "/></g></g></g><g fill="#d485f8" fill-opacity="1"><g transform="translate(42.267652, 68.598411)"><g><path d="M 9.375 -10.921875 C 9.664062 -10.921875 9.894531 -10.828125 10.0625 -10.640625 C 10.226562 -10.460938 10.3125 -10.226562 10.3125 -9.9375 L 10.3125 -0.90625 C 10.3125 -0.613281 10.222656 -0.375 10.046875 -0.1875 C 9.878906 0 9.65625 0.09375 9.375 0.09375 C 9.050781 0.09375 8.800781 -0.0234375 8.625 -0.265625 L 3.015625 -7.5625 L 3.015625 -0.90625 C 3.015625 -0.613281 2.929688 -0.375 2.765625 -0.1875 C 2.597656 0 2.375 0.09375 2.09375 0.09375 C 1.800781 0.09375 1.570312 0 1.40625 -0.1875 C 1.25 -0.375 1.171875 -0.613281 1.171875 -0.90625 L 1.171875 -9.9375 C 1.171875 -10.226562 1.253906 -10.460938 1.421875 -10.640625 C 1.597656 -10.828125 1.832031 -10.921875 2.125 -10.921875 C 2.4375 -10.921875 2.679688 -10.800781 2.859375 -10.5625 L 8.453125 -3.296875 L 8.453125 -9.9375 C 8.453125 -10.226562 8.535156 -10.460938 8.703125 -10.640625 C 8.878906 -10.828125 9.101562 -10.921875 9.375 -10.921875 Z M 9.375 -10.921875 "/></g></g></g><g fill="#d485f8" fill-opacity="1"><g transform="translate(57.202373, 68.598411)"><g><path d="M 9.421875 -5.859375 C 9.660156 -5.859375 9.847656 -5.785156 9.984375 -5.640625 C 10.128906 -5.503906 10.203125 -5.328125 10.203125 -5.109375 L 10.203125 -1.796875 C 10.203125 -1.328125 10.140625 -0.992188 10.015625 -0.796875 C 9.898438 -0.597656 9.648438 -0.441406 9.265625 -0.328125 C 8.859375 -0.179688 8.382812 -0.0664062 7.84375 0.015625 C 7.300781 0.0976562 6.773438 0.140625 6.265625 0.140625 C 5.148438 0.140625 4.179688 -0.078125 3.359375 -0.515625 C 2.546875 -0.960938 1.921875 -1.601562 1.484375 -2.4375 C 1.046875 -3.269531 0.828125 -4.265625 0.828125 -5.421875 C 0.828125 -6.566406 1.046875 -7.554688 1.484375 -8.390625 C 1.921875 -9.222656 2.535156 -9.863281 3.328125 -10.3125 C 4.128906 -10.757812 5.078125 -10.984375 6.171875 -10.984375 C 7.609375 -10.984375 8.789062 -10.59375 9.71875 -9.8125 C 9.84375 -9.695312 9.929688 -9.582031 9.984375 -9.46875 C 10.046875 -9.351562 10.078125 -9.222656 10.078125 -9.078125 C 10.078125 -8.847656 10.015625 -8.65625 9.890625 -8.5 C 9.765625 -8.34375 9.613281 -8.265625 9.4375 -8.265625 C 9.320312 -8.265625 9.21875 -8.28125 9.125 -8.3125 C 9.039062 -8.351562 8.9375 -8.414062 8.8125 -8.5 C 8.363281 -8.820312 7.941406 -9.046875 7.546875 -9.171875 C 7.160156 -9.296875 6.722656 -9.359375 6.234375 -9.359375 C 5.109375 -9.359375 4.257812 -9.023438 3.6875 -8.359375 C 3.125 -7.703125 2.84375 -6.722656 2.84375 -5.421875 C 2.84375 -2.765625 4.007812 -1.4375 6.34375 -1.4375 C 7.039062 -1.4375 7.738281 -1.53125 8.4375 -1.71875 L 8.4375 -4.4375 L 6.703125 -4.4375 C 6.453125 -4.4375 6.257812 -4.5 6.125 -4.625 C 5.988281 -4.75 5.921875 -4.925781 5.921875 -5.15625 C 5.921875 -5.375 5.988281 -5.546875 6.125 -5.671875 C 6.257812 -5.796875 6.453125 -5.859375 6.703125 -5.859375 Z M 9.421875 -5.859375 "/></g></g></g><g fill="#d485f8" fill-opacity="1"><g transform="translate(71.922015, 68.598411)"><g/></g></g><g fill="#d485f8" fill-opacity="1"><g transform="translate(79.543791, 68.598411)"><g><path d="M 7.9375 -10.578125 C 8.113281 -10.804688 8.332031 -10.921875 8.59375 -10.921875 C 8.832031 -10.921875 9.039062 -10.828125 9.21875 -10.640625 C 9.40625 -10.460938 9.5 -10.253906 9.5 -10.015625 C 9.5 -9.804688 9.421875 -9.609375 9.265625 -9.421875 L 5.78125 -5.171875 L 5.78125 -0.90625 C 5.78125 -0.59375 5.6875 -0.347656 5.5 -0.171875 C 5.320312 0.00390625 5.085938 0.09375 4.796875 0.09375 C 4.492188 0.09375 4.25 0.00390625 4.0625 -0.171875 C 3.882812 -0.347656 3.796875 -0.59375 3.796875 -0.90625 L 3.796875 -5.171875 L 0.3125 -9.421875 C 0.15625 -9.609375 0.078125 -9.804688 0.078125 -10.015625 C 0.078125 -10.253906 0.164062 -10.460938 0.34375 -10.640625 C 0.53125 -10.828125 0.742188 -10.921875 0.984375 -10.921875 C 1.242188 -10.921875 1.460938 -10.804688 1.640625 -10.578125 L 4.796875 -6.671875 Z M 7.9375 -10.578125 "/></g></g></g><g fill="#d485f8" fill-opacity="1"><g transform="translate(92.57346, 68.598411)"><g><path d="M 6 0.140625 C 4.9375 0.140625 4.019531 -0.0820312 3.25 -0.53125 C 2.476562 -0.988281 1.878906 -1.632812 1.453125 -2.46875 C 1.035156 -3.3125 0.828125 -4.296875 0.828125 -5.421875 C 0.828125 -6.554688 1.035156 -7.539062 1.453125 -8.375 C 1.867188 -9.207031 2.460938 -9.847656 3.234375 -10.296875 C 4.015625 -10.753906 4.9375 -10.984375 6 -10.984375 C 7.050781 -10.984375 7.960938 -10.753906 8.734375 -10.296875 C 9.515625 -9.847656 10.109375 -9.207031 10.515625 -8.375 C 10.929688 -7.539062 11.140625 -6.554688 11.140625 -5.421875 C 11.140625 -4.296875 10.929688 -3.3125 10.515625 -2.46875 C 10.097656 -1.632812 9.5 -0.988281 8.71875 -0.53125 C 7.945312 -0.0820312 7.039062 0.140625 6 0.140625 Z M 6 -1.4375 C 6.988281 -1.4375 7.757812 -1.78125 8.3125 -2.46875 C 8.875 -3.15625 9.15625 -4.140625 9.15625 -5.421875 C 9.15625 -6.703125 8.875 -7.679688 8.3125 -8.359375 C 7.757812 -9.046875 6.988281 -9.390625 6 -9.390625 C 4.988281 -9.390625 4.203125 -9.046875 3.640625 -8.359375 C 3.085938 -7.679688 2.8125 -6.703125 2.8125 -5.421875 C 2.8125 -4.140625 3.085938 -3.15625 3.640625 -2.46875 C 4.203125 -1.78125 4.988281 -1.4375 6 -1.4375 Z M 6 -1.4375 "/></g></g></g><g fill="#d485f8" fill-opacity="1"><g transform="translate(107.999803, 68.598411)"><g><path d="M 5.640625 0.140625 C 4.148438 0.140625 3.019531 -0.242188 2.25 -1.015625 C 1.488281 -1.785156 1.109375 -2.90625 1.109375 -4.375 L 1.109375 -9.9375 C 1.109375 -10.226562 1.191406 -10.460938 1.359375 -10.640625 C 1.535156 -10.828125 1.773438 -10.921875 2.078125 -10.921875 C 2.367188 -10.921875 2.601562 -10.828125 2.78125 -10.640625 C 2.957031 -10.460938 3.046875 -10.226562 3.046875 -9.9375 L 3.046875 -4.28125 C 3.046875 -3.34375 3.265625 -2.632812 3.703125 -2.15625 C 4.140625 -1.675781 4.785156 -1.4375 5.640625 -1.4375 C 6.484375 -1.4375 7.125 -1.675781 7.5625 -2.15625 C 8 -2.644531 8.21875 -3.351562 8.21875 -4.28125 L 8.21875 -9.9375 C 8.21875 -10.226562 8.304688 -10.460938 8.484375 -10.640625 C 8.660156 -10.828125 8.894531 -10.921875 9.1875 -10.921875 C 9.488281 -10.921875 9.722656 -10.828125 9.890625 -10.640625 C 10.066406 -10.460938 10.15625 -10.226562 10.15625 -9.9375 L 10.15625 -4.375 C 10.15625 -2.914062 9.769531 -1.796875 9 -1.015625 C 8.238281 -0.242188 7.117188 0.140625 5.640625 0.140625 Z M 5.640625 0.140625 "/></g></g></g><g fill="#d485f8" fill-opacity="1"><g transform="translate(122.719444, 68.598411)"><g><path d="M 9.84375 -1.25 C 9.96875 -1.0625 10.03125 -0.878906 10.03125 -0.703125 C 10.03125 -0.472656 9.929688 -0.28125 9.734375 -0.125 C 9.546875 0.03125 9.328125 0.109375 9.078125 0.109375 C 8.910156 0.109375 8.75 0.0703125 8.59375 0 C 8.445312 -0.0820312 8.320312 -0.203125 8.21875 -0.359375 L 6.1875 -3.453125 C 5.976562 -3.785156 5.757812 -4.015625 5.53125 -4.140625 C 5.300781 -4.273438 5 -4.34375 4.625 -4.34375 L 3.125 -4.34375 L 3.125 -0.90625 C 3.125 -0.601562 3.035156 -0.359375 2.859375 -0.171875 C 2.679688 0.00390625 2.445312 0.09375 2.15625 0.09375 C 1.851562 0.09375 1.613281 0.00390625 1.4375 -0.171875 C 1.257812 -0.359375 1.171875 -0.601562 1.171875 -0.90625 L 1.171875 -9.90625 C 1.171875 -10.195312 1.253906 -10.425781 1.421875 -10.59375 C 1.585938 -10.757812 1.820312 -10.84375 2.125 -10.84375 L 5.96875 -10.84375 C 7.195312 -10.84375 8.128906 -10.566406 8.765625 -10.015625 C 9.410156 -9.460938 9.734375 -8.671875 9.734375 -7.640625 C 9.734375 -6.796875 9.492188 -6.101562 9.015625 -5.5625 C 8.535156 -5.03125 7.863281 -4.6875 7 -4.53125 C 7.289062 -4.457031 7.550781 -4.328125 7.78125 -4.140625 C 8.007812 -3.960938 8.226562 -3.707031 8.4375 -3.375 Z M 5.6875 -5.875 C 6.4375 -5.875 6.984375 -6.015625 7.328125 -6.296875 C 7.679688 -6.578125 7.859375 -7.007812 7.859375 -7.59375 C 7.859375 -8.1875 7.679688 -8.617188 7.328125 -8.890625 C 6.984375 -9.160156 6.4375 -9.296875 5.6875 -9.296875 L 3.109375 -9.296875 L 3.109375 -5.875 Z M 5.6875 -5.875 "/></g></g></g><g fill="#d485f8" fill-opacity="1"><g transform="translate(136.855277, 68.598411)"><g/></g></g><g fill="#d485f8" fill-opacity="1"><g transform="translate(144.477053, 68.598411)"><g><path d="M 6.015625 0.140625 C 4.960938 0.140625 4.046875 -0.0820312 3.265625 -0.53125 C 2.484375 -0.988281 1.878906 -1.632812 1.453125 -2.46875 C 1.035156 -3.3125 0.828125 -4.296875 0.828125 -5.421875 C 0.828125 -6.554688 1.035156 -7.539062 1.453125 -8.375 C 1.878906 -9.207031 2.484375 -9.847656 3.265625 -10.296875 C 4.046875 -10.753906 4.960938 -10.984375 6.015625 -10.984375 C 6.691406 -10.984375 7.328125 -10.878906 7.921875 -10.671875 C 8.515625 -10.472656 9.039062 -10.1875 9.5 -9.8125 C 9.632812 -9.707031 9.726562 -9.597656 9.78125 -9.484375 C 9.832031 -9.367188 9.859375 -9.234375 9.859375 -9.078125 C 9.859375 -8.847656 9.796875 -8.65625 9.671875 -8.5 C 9.546875 -8.34375 9.394531 -8.265625 9.21875 -8.265625 C 9.019531 -8.265625 8.8125 -8.335938 8.59375 -8.484375 C 8.15625 -8.816406 7.742188 -9.046875 7.359375 -9.171875 C 6.984375 -9.296875 6.566406 -9.359375 6.109375 -9.359375 C 5.035156 -9.359375 4.222656 -9.023438 3.671875 -8.359375 C 3.128906 -7.691406 2.859375 -6.710938 2.859375 -5.421875 C 2.859375 -4.117188 3.128906 -3.132812 3.671875 -2.46875 C 4.222656 -1.800781 5.035156 -1.46875 6.109375 -1.46875 C 6.546875 -1.46875 6.953125 -1.535156 7.328125 -1.671875 C 7.703125 -1.804688 8.125 -2.035156 8.59375 -2.359375 C 8.695312 -2.410156 8.800781 -2.457031 8.90625 -2.5 C 9.007812 -2.539062 9.113281 -2.5625 9.21875 -2.5625 C 9.394531 -2.5625 9.546875 -2.484375 9.671875 -2.328125 C 9.796875 -2.179688 9.859375 -1.992188 9.859375 -1.765625 C 9.859375 -1.609375 9.832031 -1.472656 9.78125 -1.359375 C 9.726562 -1.242188 9.632812 -1.132812 9.5 -1.03125 C 9.039062 -0.65625 8.515625 -0.363281 7.921875 -0.15625 C 7.328125 0.0390625 6.691406 0.140625 6.015625 0.140625 Z M 6.015625 0.140625 "/></g></g></g><g fill="#d485f8" fill-opacity="1"><g transform="translate(158.351708, 68.598411)"><g><path d="M 9.640625 -10.921875 C 9.929688 -10.921875 10.164062 -10.828125 10.34375 -10.640625 C 10.519531 -10.460938 10.609375 -10.226562 10.609375 -9.9375 L 10.609375 -0.90625 C 10.609375 -0.613281 10.519531 -0.375 10.34375 -0.1875 C 10.164062 0 9.929688 0.09375 9.640625 0.09375 C 9.335938 0.09375 9.097656 0 8.921875 -0.1875 C 8.753906 -0.375 8.671875 -0.613281 8.671875 -0.90625 L 8.671875 -4.703125 L 3.125 -4.703125 L 3.125 -0.90625 C 3.125 -0.613281 3.03125 -0.375 2.84375 -0.1875 C 2.664062 0 2.429688 0.09375 2.140625 0.09375 C 1.847656 0.09375 1.613281 0 1.4375 -0.1875 C 1.257812 -0.375 1.171875 -0.613281 1.171875 -0.90625 L 1.171875 -9.9375 C 1.171875 -10.226562 1.253906 -10.460938 1.421875 -10.640625 C 1.597656 -10.828125 1.835938 -10.921875 2.140625 -10.921875 C 2.429688 -10.921875 2.664062 -10.828125 2.84375 -10.640625 C 3.03125 -10.460938 3.125 -10.226562 3.125 -9.9375 L 3.125 -6.296875 L 8.671875 -6.296875 L 8.671875 -9.9375 C 8.671875 -10.226562 8.753906 -10.460938 8.921875 -10.640625 C 9.097656 -10.828125 9.335938 -10.921875 9.640625 -10.921875 Z M 9.640625 -10.921875 "/></g></g></g><g fill="#d485f8" fill-opacity="1"><g transform="translate(173.578334, 68.598411)"><g><path d="M 11 -1.1875 C 11.050781 -1.050781 11.078125 -0.914062 11.078125 -0.78125 C 11.078125 -0.550781 10.984375 -0.351562 10.796875 -0.1875 C 10.609375 -0.0195312 10.390625 0.0625 10.140625 0.0625 C 9.984375 0.0625 9.832031 0.0195312 9.6875 -0.0625 C 9.539062 -0.15625 9.425781 -0.296875 9.34375 -0.484375 L 8.421875 -2.53125 L 3.015625 -2.53125 L 2.09375 -0.484375 C 2.007812 -0.296875 1.894531 -0.15625 1.75 -0.0625 C 1.601562 0.0195312 1.445312 0.0625 1.28125 0.0625 C 1.039062 0.0625 0.820312 -0.0195312 0.625 -0.1875 C 0.4375 -0.351562 0.34375 -0.550781 0.34375 -0.78125 C 0.34375 -0.914062 0.375 -1.050781 0.4375 -1.1875 L 4.671875 -10.296875 C 4.765625 -10.503906 4.90625 -10.660156 5.09375 -10.765625 C 5.28125 -10.878906 5.484375 -10.9375 5.703125 -10.9375 C 5.921875 -10.9375 6.125 -10.878906 6.3125 -10.765625 C 6.5 -10.660156 6.640625 -10.503906 6.734375 -10.296875 Z M 3.6875 -4.078125 L 7.75 -4.078125 L 5.71875 -8.640625 Z M 3.6875 -4.078125 "/></g></g></g><g fill="#d485f8" fill-opacity="1"><g transform="translate(188.436243, 68.598411)"><g><path d="M 9.84375 -1.25 C 9.96875 -1.0625 10.03125 -0.878906 10.03125 -0.703125 C 10.03125 -0.472656 9.929688 -0.28125 9.734375 -0.125 C 9.546875 0.03125 9.328125 0.109375 9.078125 0.109375 C 8.910156 0.109375 8.75 0.0703125 8.59375 0 C 8.445312 -0.0820312 8.320312 -0.203125 8.21875 -0.359375 L 6.1875 -3.453125 C 5.976562 -3.785156 5.757812 -4.015625 5.53125 -4.140625 C 5.300781 -4.273438 5 -4.34375 4.625 -4.34375 L 3.125 -4.34375 L 3.125 -0.90625 C 3.125 -0.601562 3.035156 -0.359375 2.859375 -0.171875 C 2.679688 0.00390625 2.445312 0.09375 2.15625 0.09375 C 1.851562 0.09375 1.613281 0.00390625 1.4375 -0.171875 C 1.257812 -0.359375 1.171875 -0.601562 1.171875 -0.90625 L 1.171875 -9.90625 C 1.171875 -10.195312 1.253906 -10.425781 1.421875 -10.59375 C 1.585938 -10.757812 1.820312 -10.84375 2.125 -10.84375 L 5.96875 -10.84375 C 7.195312 -10.84375 8.128906 -10.566406 8.765625 -10.015625 C 9.410156 -9.460938 9.734375 -8.671875 9.734375 -7.640625 C 9.734375 -6.796875 9.492188 -6.101562 9.015625 -5.5625 C 8.535156 -5.03125 7.863281 -4.6875 7 -4.53125 C 7.289062 -4.457031 7.550781 -4.328125 7.78125 -4.140625 C 8.007812 -3.960938 8.226562 -3.707031 8.4375 -3.375 Z M 5.6875 -5.875 C 6.4375 -5.875 6.984375 -6.015625 7.328125 -6.296875 C 7.679688 -6.578125 7.859375 -7.007812 7.859375 -7.59375 C 7.859375 -8.1875 7.679688 -8.617188 7.328125 -8.890625 C 6.984375 -9.160156 6.4375 -9.296875 5.6875 -9.296875 L 3.109375 -9.296875 L 3.109375 -5.875 Z M 5.6875 -5.875 "/></g></g></g><g fill="#d485f8" fill-opacity="1"><g transform="translate(202.572064, 68.598411)"><g><path d="M 11 -1.1875 C 11.050781 -1.050781 11.078125 -0.914062 11.078125 -0.78125 C 11.078125 -0.550781 10.984375 -0.351562 10.796875 -0.1875 C 10.609375 -0.0195312 10.390625 0.0625 10.140625 0.0625 C 9.984375 0.0625 9.832031 0.0195312 9.6875 -0.0625 C 9.539062 -0.15625 9.425781 -0.296875 9.34375 -0.484375 L 8.421875 -2.53125 L 3.015625 -2.53125 L 2.09375 -0.484375 C 2.007812 -0.296875 1.894531 -0.15625 1.75 -0.0625 C 1.601562 0.0195312 1.445312 0.0625 1.28125 0.0625 C 1.039062 0.0625 0.820312 -0.0195312 0.625 -0.1875 C 0.4375 -0.351562 0.34375 -0.550781 0.34375 -0.78125 C 0.34375 -0.914062 0.375 -1.050781 0.4375 -1.1875 L 4.671875 -10.296875 C 4.765625 -10.503906 4.90625 -10.660156 5.09375 -10.765625 C 5.28125 -10.878906 5.484375 -10.9375 5.703125 -10.9375 C 5.921875 -10.9375 6.125 -10.878906 6.3125 -10.765625 C 6.5 -10.660156 6.640625 -10.503906 6.734375 -10.296875 Z M 3.6875 -4.078125 L 7.75 -4.078125 L 5.71875 -8.640625 Z M 3.6875 -4.078125 "/></g></g></g><g fill="#d485f8" fill-opacity="1"><g transform="translate(217.429974, 68.598411)"><g><path d="M 6.015625 0.140625 C 4.960938 0.140625 4.046875 -0.0820312 3.265625 -0.53125 C 2.484375 -0.988281 1.878906 -1.632812 1.453125 -2.46875 C 1.035156 -3.3125 0.828125 -4.296875 0.828125 -5.421875 C 0.828125 -6.554688 1.035156 -7.539062 1.453125 -8.375 C 1.878906 -9.207031 2.484375 -9.847656 3.265625 -10.296875 C 4.046875 -10.753906 4.960938 -10.984375 6.015625 -10.984375 C 6.691406 -10.984375 7.328125 -10.878906 7.921875 -10.671875 C 8.515625 -10.472656 9.039062 -10.1875 9.5 -9.8125 C 9.632812 -9.707031 9.726562 -9.597656 9.78125 -9.484375 C 9.832031 -9.367188 9.859375 -9.234375 9.859375 -9.078125 C 9.859375 -8.847656 9.796875 -8.65625 9.671875 -8.5 C 9.546875 -8.34375 9.394531 -8.265625 9.21875 -8.265625 C 9.019531 -8.265625 8.8125 -8.335938 8.59375 -8.484375 C 8.15625 -8.816406 7.742188 -9.046875 7.359375 -9.171875 C 6.984375 -9.296875 6.566406 -9.359375 6.109375 -9.359375 C 5.035156 -9.359375 4.222656 -9.023438 3.671875 -8.359375 C 3.128906 -7.691406 2.859375 -6.710938 2.859375 -5.421875 C 2.859375 -4.117188 3.128906 -3.132812 3.671875 -2.46875 C 4.222656 -1.800781 5.035156 -1.46875 6.109375 -1.46875 C 6.546875 -1.46875 6.953125 -1.535156 7.328125 -1.671875 C 7.703125 -1.804688 8.125 -2.035156 8.59375 -2.359375 C 8.695312 -2.410156 8.800781 -2.457031 8.90625 -2.5 C 9.007812 -2.539062 9.113281 -2.5625 9.21875 -2.5625 C 9.394531 -2.5625 9.546875 -2.484375 9.671875 -2.328125 C 9.796875 -2.179688 9.859375 -1.992188 9.859375 -1.765625 C 9.859375 -1.609375 9.832031 -1.472656 9.78125 -1.359375 C 9.726562 -1.242188 9.632812 -1.132812 9.5 -1.03125 C 9.039062 -0.65625 8.515625 -0.363281 7.921875 -0.15625 C 7.328125 0.0390625 6.691406 0.140625 6.015625 0.140625 Z M 6.015625 0.140625 "/></g></g></g><g fill="#d485f8" fill-opacity="1"><g transform="translate(231.304629, 68.598411)"><g><path d="M 4.71875 0.078125 C 4.414062 0.078125 4.171875 -0.0078125 3.984375 -0.1875 C 3.804688 -0.375 3.71875 -0.613281 3.71875 -0.90625 L 3.71875 -9.203125 L 0.921875 -9.203125 C 0.304688 -9.203125 0 -9.476562 0 -10.03125 C 0 -10.570312 0.304688 -10.84375 0.921875 -10.84375 L 8.5 -10.84375 C 9.113281 -10.84375 9.421875 -10.570312 9.421875 -10.03125 C 9.421875 -9.476562 9.113281 -9.203125 8.5 -9.203125 L 5.703125 -9.203125 L 5.703125 -0.90625 C 5.703125 -0.613281 5.613281 -0.375 5.4375 -0.1875 C 5.257812 -0.0078125 5.019531 0.078125 4.71875 0.078125 Z M 4.71875 0.078125 "/></g></g></g><g fill="#d485f8" fill-opacity="1"><g transform="translate(244.18065, 68.598411)"><g><path d="M 2.125 0 C 1.820312 0 1.585938 -0.078125 1.421875 -0.234375 C 1.253906 -0.398438 1.171875 -0.632812 1.171875 -0.9375 L 1.171875 -9.90625 C 1.171875 -10.195312 1.253906 -10.425781 1.421875 -10.59375 C 1.585938 -10.757812 1.820312 -10.84375 2.125 -10.84375 L 7.671875 -10.84375 C 7.972656 -10.84375 8.203125 -10.773438 8.359375 -10.640625 C 8.523438 -10.503906 8.609375 -10.316406 8.609375 -10.078125 C 8.609375 -9.816406 8.523438 -9.613281 8.359375 -9.46875 C 8.203125 -9.332031 7.972656 -9.265625 7.671875 -9.265625 L 3.109375 -9.265625 L 3.109375 -6.28125 L 7.359375 -6.28125 C 7.660156 -6.28125 7.890625 -6.210938 8.046875 -6.078125 C 8.210938 -5.953125 8.296875 -5.757812 8.296875 -5.5 C 8.296875 -5.257812 8.210938 -5.070312 8.046875 -4.9375 C 7.890625 -4.800781 7.660156 -4.734375 7.359375 -4.734375 L 3.109375 -4.734375 L 3.109375 -1.5625 L 7.671875 -1.5625 C 7.972656 -1.5625 8.203125 -1.492188 8.359375 -1.359375 C 8.523438 -1.222656 8.609375 -1.023438 8.609375 -0.765625 C 8.609375 -0.523438 8.523438 -0.335938 8.359375 -0.203125 C 8.203125 -0.0664062 7.972656 0 7.671875 0 Z M 2.125 0 "/></g></g></g><g fill="#d485f8" fill-opacity="1"><g transform="translate(256.687966, 68.598411)"><g><path d="M 9.84375 -1.25 C 9.96875 -1.0625 10.03125 -0.878906 10.03125 -0.703125 C 10.03125 -0.472656 9.929688 -0.28125 9.734375 -0.125 C 9.546875 0.03125 9.328125 0.109375 9.078125 0.109375 C 8.910156 0.109375 8.75 0.0703125 8.59375 0 C 8.445312 -0.0820312 8.320312 -0.203125 8.21875 -0.359375 L 6.1875 -3.453125 C 5.976562 -3.785156 5.757812 -4.015625 5.53125 -4.140625 C 5.300781 -4.273438 5 -4.34375 4.625 -4.34375 L 3.125 -4.34375 L 3.125 -0.90625 C 3.125 -0.601562 3.035156 -0.359375 2.859375 -0.171875 C 2.679688 0.00390625 2.445312 0.09375 2.15625 0.09375 C 1.851562 0.09375 1.613281 0.00390625 1.4375 -0.171875 C 1.257812 -0.359375 1.171875 -0.601562 1.171875 -0.90625 L 1.171875 -9.90625 C 1.171875 -10.195312 1.253906 -10.425781 1.421875 -10.59375 C 1.585938 -10.757812 1.820312 -10.84375 2.125 -10.84375 L 5.96875 -10.84375 C 7.195312 -10.84375 8.128906 -10.566406 8.765625 -10.015625 C 9.410156 -9.460938 9.734375 -8.671875 9.734375 -7.640625 C 9.734375 -6.796875 9.492188 -6.101562 9.015625 -5.5625 C 8.535156 -5.03125 7.863281 -4.6875 7 -4.53125 C 7.289062 -4.457031 7.550781 -4.328125 7.78125 -4.140625 C 8.007812 -3.960938 8.226562 -3.707031 8.4375 -3.375 Z M 5.6875 -5.875 C 6.4375 -5.875 6.984375 -6.015625 7.328125 -6.296875 C 7.679688 -6.578125 7.859375 -7.007812 7.859375 -7.59375 C 7.859375 -8.1875 7.679688 -8.617188 7.328125 -8.890625 C 6.984375 -9.160156 6.4375 -9.296875 5.6875 -9.296875 L 3.109375 -9.296875 L 3.109375 -5.875 Z M 5.6875 -5.875 "/></g></g></g><g fill="#d485f8" fill-opacity="1"><g transform="translate(270.823798, 68.598411)"><g><path d="M 4.921875 0.140625 C 4.128906 0.140625 3.378906 0.0351562 2.671875 -0.171875 C 1.972656 -0.378906 1.40625 -0.664062 0.96875 -1.03125 C 0.726562 -1.207031 0.609375 -1.453125 0.609375 -1.765625 C 0.609375 -1.984375 0.671875 -2.171875 0.796875 -2.328125 C 0.929688 -2.484375 1.085938 -2.5625 1.265625 -2.5625 C 1.441406 -2.5625 1.648438 -2.492188 1.890625 -2.359375 C 2.328125 -2.035156 2.785156 -1.800781 3.265625 -1.65625 C 3.753906 -1.507812 4.289062 -1.4375 4.875 -1.4375 C 5.625 -1.4375 6.195312 -1.566406 6.59375 -1.828125 C 7 -2.097656 7.203125 -2.484375 7.203125 -2.984375 C 7.203125 -3.367188 7.015625 -3.664062 6.640625 -3.875 C 6.265625 -4.09375 5.640625 -4.296875 4.765625 -4.484375 C 3.859375 -4.679688 3.125 -4.90625 2.5625 -5.15625 C 2 -5.414062 1.570312 -5.742188 1.28125 -6.140625 C 1 -6.546875 0.859375 -7.054688 0.859375 -7.671875 C 0.859375 -8.304688 1.035156 -8.875 1.390625 -9.375 C 1.753906 -9.875 2.253906 -10.265625 2.890625 -10.546875 C 3.535156 -10.835938 4.257812 -10.984375 5.0625 -10.984375 C 6.519531 -10.984375 7.710938 -10.59375 8.640625 -9.8125 C 8.773438 -9.695312 8.867188 -9.582031 8.921875 -9.46875 C 8.984375 -9.363281 9.015625 -9.234375 9.015625 -9.078125 C 9.015625 -8.859375 8.945312 -8.664062 8.8125 -8.5 C 8.6875 -8.34375 8.535156 -8.265625 8.359375 -8.265625 C 8.253906 -8.265625 8.160156 -8.28125 8.078125 -8.3125 C 7.992188 -8.34375 7.878906 -8.398438 7.734375 -8.484375 C 7.316406 -8.796875 6.910156 -9.023438 6.515625 -9.171875 C 6.117188 -9.316406 5.632812 -9.390625 5.0625 -9.390625 C 4.363281 -9.390625 3.8125 -9.25 3.40625 -8.96875 C 3 -8.6875 2.796875 -8.296875 2.796875 -7.796875 C 2.796875 -7.378906 2.972656 -7.054688 3.328125 -6.828125 C 3.691406 -6.597656 4.304688 -6.390625 5.171875 -6.203125 C 6.078125 -5.992188 6.8125 -5.765625 7.375 -5.515625 C 7.945312 -5.265625 8.382812 -4.941406 8.6875 -4.546875 C 8.988281 -4.160156 9.140625 -3.675781 9.140625 -3.09375 C 9.140625 -2.457031 8.960938 -1.894531 8.609375 -1.40625 C 8.265625 -0.914062 7.769531 -0.535156 7.125 -0.265625 C 6.488281 0.00390625 5.753906 0.140625 4.921875 0.140625 Z M 4.921875 0.140625 "/></g></g></g><g fill="#d485f8" fill-opacity="1"><g transform="translate(284.083906, 68.598411)"><g/></g></g><g fill="#d485f8" fill-opacity="1"><g transform="translate(291.70567, 68.598411)"><g><path d="M 4.71875 0.078125 C 4.414062 0.078125 4.171875 -0.0078125 3.984375 -0.1875 C 3.804688 -0.375 3.71875 -0.613281 3.71875 -0.90625 L 3.71875 -9.203125 L 0.921875 -9.203125 C 0.304688 -9.203125 0 -9.476562 0 -10.03125 C 0 -10.570312 0.304688 -10.84375 0.921875 -10.84375 L 8.5 -10.84375 C 9.113281 -10.84375 9.421875 -10.570312 9.421875 -10.03125 C 9.421875 -9.476562 9.113281 -9.203125 8.5 -9.203125 L 5.703125 -9.203125 L 5.703125 -0.90625 C 5.703125 -0.613281 5.613281 -0.375 5.4375 -0.1875 C 5.257812 -0.0078125 5.019531 0.078125 4.71875 0.078125 Z M 4.71875 0.078125 "/></g></g></g><g fill="#d485f8" fill-opacity="1"><g transform="translate(304.581692, 68.598411)"><g><path d="M 6 0.140625 C 4.9375 0.140625 4.019531 -0.0820312 3.25 -0.53125 C 2.476562 -0.988281 1.878906 -1.632812 1.453125 -2.46875 C 1.035156 -3.3125 0.828125 -4.296875 0.828125 -5.421875 C 0.828125 -6.554688 1.035156 -7.539062 1.453125 -8.375 C 1.867188 -9.207031 2.460938 -9.847656 3.234375 -10.296875 C 4.015625 -10.753906 4.9375 -10.984375 6 -10.984375 C 7.050781 -10.984375 7.960938 -10.753906 8.734375 -10.296875 C 9.515625 -9.847656 10.109375 -9.207031 10.515625 -8.375 C 10.929688 -7.539062 11.140625 -6.554688 11.140625 -5.421875 C 11.140625 -4.296875 10.929688 -3.3125 10.515625 -2.46875 C 10.097656 -1.632812 9.5 -0.988281 8.71875 -0.53125 C 7.945312 -0.0820312 7.039062 0.140625 6 0.140625 Z M 6 -1.4375 C 6.988281 -1.4375 7.757812 -1.78125 8.3125 -2.46875 C 8.875 -3.15625 9.15625 -4.140625 9.15625 -5.421875 C 9.15625 -6.703125 8.875 -7.679688 8.3125 -8.359375 C 7.757812 -9.046875 6.988281 -9.390625 6 -9.390625 C 4.988281 -9.390625 4.203125 -9.046875 3.640625 -8.359375 C 3.085938 -7.679688 2.8125 -6.703125 2.8125 -5.421875 C 2.8125 -4.140625 3.085938 -3.15625 3.640625 -2.46875 C 4.203125 -1.78125 4.988281 -1.4375 6 -1.4375 Z M 6 -1.4375 "/></g></g></g><g fill="#d485f8" fill-opacity="1"><g transform="translate(320.008029, 68.598411)"><g/></g></g><g fill="#d485f8" fill-opacity="1"><g transform="translate(327.629793, 68.598411)"><g><path d="M 2.109375 0 C 1.804688 0 1.570312 -0.078125 1.40625 -0.234375 C 1.25 -0.398438 1.171875 -0.628906 1.171875 -0.921875 L 1.171875 -9.9375 C 1.171875 -10.226562 1.257812 -10.460938 1.4375 -10.640625 C 1.613281 -10.828125 1.851562 -10.921875 2.15625 -10.921875 C 2.457031 -10.921875 2.695312 -10.828125 2.875 -10.640625 C 3.0625 -10.460938 3.15625 -10.226562 3.15625 -9.9375 L 3.15625 -1.625 L 7.46875 -1.625 C 8.082031 -1.625 8.390625 -1.351562 8.390625 -0.8125 C 8.390625 -0.269531 8.082031 0 7.46875 0 Z M 2.109375 0 "/></g></g></g><g fill="#d485f8" fill-opacity="1"><g transform="translate(339.614755, 68.598411)"><g><path d="M 2.15625 0.09375 C 1.851562 0.09375 1.613281 0 1.4375 -0.1875 C 1.257812 -0.375 1.171875 -0.613281 1.171875 -0.90625 L 1.171875 -9.9375 C 1.171875 -10.226562 1.257812 -10.460938 1.4375 -10.640625 C 1.613281 -10.828125 1.851562 -10.921875 2.15625 -10.921875 C 2.457031 -10.921875 2.695312 -10.828125 2.875 -10.640625 C 3.0625 -10.460938 3.15625 -10.226562 3.15625 -9.9375 L 3.15625 -0.90625 C 3.15625 -0.613281 3.0625 -0.375 2.875 -0.1875 C 2.695312 0 2.457031 0.09375 2.15625 0.09375 Z M 2.15625 0.09375 "/></g></g></g><g fill="#d485f8" fill-opacity="1"><g transform="translate(347.390168, 68.598411)"><g><path d="M 2.15625 0.09375 C 1.851562 0.09375 1.613281 0 1.4375 -0.1875 C 1.257812 -0.375 1.171875 -0.613281 1.171875 -0.90625 L 1.171875 -9.90625 C 1.171875 -10.195312 1.253906 -10.425781 1.421875 -10.59375 C 1.585938 -10.757812 1.820312 -10.84375 2.125 -10.84375 L 7.515625 -10.84375 C 8.140625 -10.84375 8.453125 -10.578125 8.453125 -10.046875 C 8.453125 -9.515625 8.140625 -9.25 7.515625 -9.25 L 3.125 -9.25 L 3.125 -6.296875 L 7.203125 -6.296875 C 7.835938 -6.296875 8.15625 -6.03125 8.15625 -5.5 C 8.15625 -4.976562 7.835938 -4.71875 7.203125 -4.71875 L 3.125 -4.71875 L 3.125 -0.90625 C 3.125 -0.613281 3.035156 -0.375 2.859375 -0.1875 C 2.679688 0 2.445312 0.09375 2.15625 0.09375 Z M 2.15625 0.09375 "/></g></g></g><g fill="#d485f8" fill-opacity="1"><g transform="translate(359.544113, 68.598411)"><g><path d="M 2.125 0 C 1.820312 0 1.585938 -0.078125 1.421875 -0.234375 C 1.253906 -0.398438 1.171875 -0.632812 1.171875 -0.9375 L 1.171875 -9.90625 C 1.171875 -10.195312 1.253906 -10.425781 1.421875 -10.59375 C 1.585938 -10.757812 1.820312 -10.84375 2.125 -10.84375 L 7.671875 -10.84375 C 7.972656 -10.84375 8.203125 -10.773438 8.359375 -10.640625 C 8.523438 -10.503906 8.609375 -10.316406 8.609375 -10.078125 C 8.609375 -9.816406 8.523438 -9.613281 8.359375 -9.46875 C 8.203125 -9.332031 7.972656 -9.265625 7.671875 -9.265625 L 3.109375 -9.265625 L 3.109375 -6.28125 L 7.359375 -6.28125 C 7.660156 -6.28125 7.890625 -6.210938 8.046875 -6.078125 C 8.210938 -5.953125 8.296875 -5.757812 8.296875 -5.5 C 8.296875 -5.257812 8.210938 -5.070312 8.046875 -4.9375 C 7.890625 -4.800781 7.660156 -4.734375 7.359375 -4.734375 L 3.109375 -4.734375 L 3.109375 -1.5625 L 7.671875 -1.5625 C 7.972656 -1.5625 8.203125 -1.492188 8.359375 -1.359375 C 8.523438 -1.222656 8.609375 -1.023438 8.609375 -0.765625 C 8.609375 -0.523438 8.523438 -0.335938 8.359375 -0.203125 C 8.203125 -0.0664062 7.972656 0 7.671875 0 Z M 2.125 0 "/></g></g></g><g fill="#1afacd" fill-opacity="1"><g transform="translate(68.904493, 34.409764)"><g><path d="M 12.359375 0.34375 C 11.234375 0.34375 10.363281 0.0351562 9.75 -0.578125 C 9.132812 -1.191406 8.828125 -2.070312 8.828125 -3.21875 L 8.828125 -21.3125 L 2.796875 -21.3125 C 0.859375 -21.3125 -0.109375 -22.273438 -0.109375 -24.203125 C -0.109375 -26.117188 0.859375 -27.078125 2.796875 -27.078125 L 21.9375 -27.078125 C 23.875 -27.078125 24.84375 -26.117188 24.84375 -24.203125 C 24.84375 -22.273438 23.875 -21.3125 21.9375 -21.3125 L 15.90625 -21.3125 L 15.90625 -3.21875 C 15.90625 -2.070312 15.601562 -1.191406 15 -0.578125 C 14.394531 0.0351562 13.515625 0.34375 12.359375 0.34375 Z M 12.359375 0.34375 "/></g></g></g><g fill="#1afacd" fill-opacity="1"><g transform="translate(97.468297, 34.409764)"><g><path d="M 6.140625 0 C 3.679688 0 2.453125 -1.21875 2.453125 -3.65625 L 2.453125 -23.421875 C 2.453125 -25.859375 3.679688 -27.078125 6.140625 -27.078125 L 19.171875 -27.078125 C 21.015625 -27.078125 21.9375 -26.179688 21.9375 -24.390625 C 21.9375 -22.546875 21.015625 -21.625 19.171875 -21.625 L 9.21875 -21.625 L 9.21875 -16.46875 L 18.3125 -16.46875 C 20.15625 -16.46875 21.078125 -15.5625 21.078125 -13.75 C 21.078125 -11.925781 20.15625 -11.015625 18.3125 -11.015625 L 9.21875 -11.015625 L 9.21875 -5.453125 L 19.171875 -5.453125 C 21.015625 -5.453125 21.9375 -4.546875 21.9375 -2.734375 C 21.9375 -0.910156 21.015625 0 19.171875 0 Z M 6.140625 0 "/></g></g></g><g fill="#1afacd" fill-opacity="1"><g transform="translate(124.880379, 34.409764)"><g><path d="M 16.125 0.421875 C 13.132812 0.421875 10.5625 -0.148438 8.40625 -1.296875 C 6.257812 -2.453125 4.613281 -4.078125 3.46875 -6.171875 C 2.332031 -8.273438 1.765625 -10.738281 1.765625 -13.5625 C 1.765625 -16.375 2.332031 -18.820312 3.46875 -20.90625 C 4.613281 -23 6.257812 -24.617188 8.40625 -25.765625 C 10.5625 -26.921875 13.132812 -27.5 16.125 -27.5 C 17.300781 -27.5 18.523438 -27.363281 19.796875 -27.09375 C 21.066406 -26.820312 22.1875 -26.421875 23.15625 -25.890625 C 23.875 -25.503906 24.375 -25.015625 24.65625 -24.421875 C 24.9375 -23.835938 25.035156 -23.238281 24.953125 -22.625 C 24.878906 -22.007812 24.65625 -21.457031 24.28125 -20.96875 C 23.914062 -20.476562 23.453125 -20.148438 22.890625 -19.984375 C 22.328125 -19.816406 21.710938 -19.898438 21.046875 -20.234375 C 19.535156 -20.984375 17.988281 -21.359375 16.40625 -21.359375 C 14.019531 -21.359375 12.222656 -20.6875 11.015625 -19.34375 C 9.816406 -18 9.21875 -16.070312 9.21875 -13.5625 C 9.21875 -11.019531 9.816406 -9.078125 11.015625 -7.734375 C 12.222656 -6.390625 14.019531 -5.71875 16.40625 -5.71875 C 17.0625 -5.71875 17.773438 -5.800781 18.546875 -5.96875 C 19.316406 -6.132812 20.070312 -6.398438 20.8125 -6.765625 C 21.582031 -7.097656 22.265625 -7.1875 22.859375 -7.03125 C 23.460938 -6.875 23.957031 -6.566406 24.34375 -6.109375 C 24.726562 -5.648438 24.960938 -5.117188 25.046875 -4.515625 C 25.140625 -3.910156 25.054688 -3.3125 24.796875 -2.71875 C 24.546875 -2.132812 24.078125 -1.664062 23.390625 -1.3125 C 22.492188 -0.769531 21.382812 -0.34375 20.0625 -0.03125 C 18.75 0.269531 17.4375 0.421875 16.125 0.421875 Z M 16.125 0.421875 "/></g></g></g><g fill="#1afacd" fill-opacity="1"><g transform="translate(155.133365, 34.409764)"><g><path d="M 5.984375 0.34375 C 4.859375 0.34375 3.988281 0.0351562 3.375 -0.578125 C 2.757812 -1.191406 2.453125 -2.085938 2.453125 -3.265625 L 2.453125 -23.8125 C 2.453125 -24.988281 2.757812 -25.882812 3.375 -26.5 C 3.988281 -27.113281 4.859375 -27.421875 5.984375 -27.421875 C 7.117188 -27.421875 7.992188 -27.113281 8.609375 -26.5 C 9.222656 -25.882812 9.53125 -24.988281 9.53125 -23.8125 L 9.53125 -16.625 L 20.703125 -16.625 L 20.703125 -23.8125 C 20.703125 -24.988281 21.007812 -25.882812 21.625 -26.5 C 22.238281 -27.113281 23.109375 -27.421875 24.234375 -27.421875 C 25.359375 -27.421875 26.222656 -27.113281 26.828125 -26.5 C 27.429688 -25.882812 27.734375 -24.988281 27.734375 -23.8125 L 27.734375 -3.265625 C 27.734375 -2.085938 27.429688 -1.191406 26.828125 -0.578125 C 26.222656 0.0351562 25.359375 0.34375 24.234375 0.34375 C 23.078125 0.34375 22.195312 0.0351562 21.59375 -0.578125 C 21 -1.191406 20.703125 -2.085938 20.703125 -3.265625 L 20.703125 -10.828125 L 9.53125 -10.828125 L 9.53125 -3.265625 C 9.53125 -2.085938 9.226562 -1.191406 8.625 -0.578125 C 8.019531 0.0351562 7.140625 0.34375 5.984375 0.34375 Z M 5.984375 0.34375 "/></g></g></g><g fill="#1afacd" fill-opacity="1"><g transform="translate(189.148631, 34.409764)"><g/></g></g><g fill="#1afacd" fill-opacity="1"><g transform="translate(203.968591, 34.409764)"><g><path d="M 6.03125 0.34375 C 4.90625 0.34375 4.023438 0.03125 3.390625 -0.59375 C 2.765625 -1.21875 2.453125 -2.117188 2.453125 -3.296875 L 2.453125 -23.421875 C 2.453125 -25.859375 3.679688 -27.078125 6.140625 -27.078125 L 18.9375 -27.078125 C 20.78125 -27.078125 21.703125 -26.179688 21.703125 -24.390625 C 21.703125 -22.546875 20.78125 -21.625 18.9375 -21.625 L 9.53125 -21.625 L 9.53125 -16.171875 L 18.09375 -16.171875 C 19.9375 -16.171875 20.859375 -15.273438 20.859375 -13.484375 C 20.859375 -11.660156 19.9375 -10.75 18.09375 -10.75 L 9.53125 -10.75 L 9.53125 -3.296875 C 9.53125 -0.867188 8.363281 0.34375 6.03125 0.34375 Z M 6.03125 0.34375 "/></g></g></g><g fill="#1afacd" fill-opacity="1"><g transform="translate(230.036995, 34.409764)"><g><path d="M 5.984375 0.34375 C 4.859375 0.34375 3.988281 0.0351562 3.375 -0.578125 C 2.757812 -1.191406 2.453125 -2.085938 2.453125 -3.265625 L 2.453125 -23.8125 C 2.453125 -24.988281 2.757812 -25.882812 3.375 -26.5 C 3.988281 -27.113281 4.859375 -27.421875 5.984375 -27.421875 C 7.117188 -27.421875 7.992188 -27.113281 8.609375 -26.5 C 9.222656 -25.882812 9.53125 -24.988281 9.53125 -23.8125 L 9.53125 -3.265625 C 9.53125 -2.085938 9.226562 -1.191406 8.625 -0.578125 C 8.019531 0.0351562 7.140625 0.34375 5.984375 0.34375 Z M 5.984375 0.34375 "/></g></g></g><g fill="#1afacd" fill-opacity="1"><g transform="translate(245.855108, 34.409764)"><g><path d="M 6.03125 0 C 4.875 0 3.988281 -0.3125 3.375 -0.9375 C 2.757812 -1.5625 2.453125 -2.441406 2.453125 -3.578125 L 2.453125 -23.546875 C 2.453125 -24.691406 2.757812 -25.570312 3.375 -26.1875 C 3.988281 -26.800781 4.859375 -27.109375 5.984375 -27.109375 C 7.117188 -27.109375 7.992188 -26.800781 8.609375 -26.1875 C 9.222656 -25.570312 9.53125 -24.691406 9.53125 -23.546875 L 9.53125 -5.875 L 18.890625 -5.875 C 19.867188 -5.875 20.617188 -5.617188 21.140625 -5.109375 C 21.671875 -4.597656 21.9375 -3.878906 21.9375 -2.953125 C 21.9375 -2.003906 21.671875 -1.273438 21.140625 -0.765625 C 20.617188 -0.253906 19.867188 0 18.890625 0 Z M 6.03125 0 "/></g></g></g><g fill="#1afacd" fill-opacity="1"><g transform="translate(272.153858, 34.409764)"><g><path d="M 5.71875 0.34375 C 4.695312 0.34375 3.910156 0.0625 3.359375 -0.5 C 2.804688 -1.0625 2.53125 -1.851562 2.53125 -2.875 L 2.53125 -24.203125 C 2.53125 -25.242188 2.820312 -26.039062 3.40625 -26.59375 C 4 -27.144531 4.835938 -27.421875 5.921875 -27.421875 C 6.785156 -27.421875 7.484375 -27.25 8.015625 -26.90625 C 8.554688 -26.5625 9.046875 -25.988281 9.484375 -25.1875 L 17.046875 -11.5625 L 24.625 -25.1875 C 25.082031 -25.988281 25.570312 -26.5625 26.09375 -26.90625 C 26.625 -27.25 27.335938 -27.421875 28.234375 -27.421875 C 29.222656 -27.421875 30 -27.144531 30.5625 -26.59375 C 31.132812 -26.039062 31.421875 -25.242188 31.421875 -24.203125 L 31.421875 -2.875 C 31.421875 -1.851562 31.148438 -1.0625 30.609375 -0.5 C 30.066406 0.0625 29.273438 0.34375 28.234375 0.34375 C 27.203125 0.34375 26.410156 0.0625 25.859375 -0.5 C 25.316406 -1.0625 25.046875 -1.851562 25.046875 -2.875 L 25.046875 -14.703125 L 19.65625 -5.34375 C 19.300781 -4.78125 18.925781 -4.359375 18.53125 -4.078125 C 18.132812 -3.796875 17.601562 -3.65625 16.9375 -3.65625 C 16.300781 -3.65625 15.773438 -3.796875 15.359375 -4.078125 C 14.953125 -4.359375 14.582031 -4.78125 14.25 -5.34375 L 8.90625 -14.5625 L 8.90625 -2.875 C 8.90625 -1.851562 8.632812 -1.0625 8.09375 -0.5 C 7.5625 0.0625 6.769531 0.34375 5.71875 0.34375 Z M 5.71875 0.34375 "/></g></g></g></svg>